# xmcd
#
# Track frame offsets: 
#        150
#        35247
#        63060
#        78014
#        106686
#        133129
#        150500
#        175190
#        190894
#
# Disc length: 2910 seconds
#
# Revision: 2
# Processed by: cddbd v1.5.2PL0 Copyright (c) Steve Scherf et al.
# Submitted via: ExactAudioCopyFreeDBPlugin 1.0
#
DISCID=680b5c09
DTITLE=Taj Mahal - Mkutano - Taj Mahal Meets The Culture Musical Club 
DTITLE=Of Zanzibar -
DYEAR=2005
DGENRE=Ethnic Taarab Blues
TTITLE0=Dhow Countries
TTITLE1=Muhoga wa jang' ombe
TTITLE2=Zanzibar
TTITLE3=Catfish Blues
TTITLE4=Naahidi Kulienzi
TTITLE5=Mkutano
TTITLE6=Done changed my way of living
TTITLE7=M'Banjo
TTITLE8=Mpunga
EXTD=
EXTT0=
EXTT1=
EXTT2=
EXTT3=
EXTT4=
EXTT5=
EXTT6=
EXTT7=
EXTT8=
PLAYORDER=
